<svg xmlns="http://www.w3.org/2000/svg" xmlns:xlink="http://www.w3.org/1999/xlink" width="1000" zoomAndPan="magnify" viewBox="0 0 750 749.999995" height="1000" preserveAspectRatio="xMidYMid meet" version="1.0"><defs><clipPath id="88b6207d5d"><path d="M 10.910156 159 L 739.160156 159 L 739.160156 562 L 10.910156 562 Z M 10.910156 159 " clip-rule="nonzero"/></clipPath><clipPath id="318f4b2b9c"><path d="M 290.421875 93.078125 L 459.921875 93.078125 L 459.921875 262.578125 L 290.421875 262.578125 Z M 290.421875 93.078125 " clip-rule="nonzero"/></clipPath><clipPath id="073c6d4038"><path d="M 290.421875 114 L 312 114 L 312 136 L 290.421875 136 Z M 290.421875 114 " clip-rule="nonzero"/></clipPath><clipPath id="cb69a9cd04"><path d="M 290.421875 220 L 312 220 L 312 242 L 290.421875 242 Z M 290.421875 220 " clip-rule="nonzero"/></clipPath><clipPath id="049a4477ff"><path d="M 288.320312 473.015625 L 483.320312 473.015625 L 483.320312 645.515625 L 288.320312 645.515625 Z M 288.320312 473.015625 " clip-rule="nonzero"/></clipPath></defs><rect x="-75" width="900" fill="#ffffff" y="-74.999999" height="899.999994" fill-opacity="1"/><rect x="-75" width="900" fill="#000000" y="-74.999999" height="899.999994" fill-opacity="1"/><g clip-path="url(#88b6207d5d)"><path fill="#ffffff" d="M 10.910156 561.226562 L 10.910156 159.800781 L 375.109375 353.007812 L 739.160156 159.800781 L 739.160156 561.226562 L 676.105469 561.226562 L 676.105469 263.835938 L 375.109375 423.714844 L 70.359375 263.835938 L 70.359375 561.226562 Z M 10.910156 561.226562 " fill-opacity="1" fill-rule="nonzero"/></g><path fill="#ffffff" d="M 196.761719 0.0742188 L 583.179688 0.0742188 L 583.179688 115.214844 L 519.976562 148.691406 L 519.976562 63.273438 L 230.089844 63.273438 L 230.089844 301.066406 L 167.039062 271.339844 L 167.039062 0.0742188 Z M 230.089844 472.054688 L 230.089844 687.625 L 519.976562 687.625 L 519.976562 275.09375 L 583.179688 275.09375 L 583.179688 750.675781 L 167.039062 750.675781 L 167.039062 438.574219 Z M 230.089844 472.054688 " fill-opacity="1" fill-rule="nonzero"/><path fill="#ffffff" d="M 375.121094 220.144531 L 332.753906 220.144531 L 311.566406 198.960938 L 375.121094 198.960938 C 386.816406 198.960938 396.304688 189.472656 396.304688 177.777344 C 396.304688 166.082031 386.816406 156.59375 375.121094 156.59375 L 311.566406 156.59375 L 332.753906 135.40625 L 375.121094 135.40625 C 398.515625 135.40625 417.488281 154.378906 417.488281 177.777344 C 417.488281 201.175781 398.515625 220.144531 375.121094 220.144531 " fill-opacity="1" fill-rule="nonzero"/><path fill="#ffffff" d="M 332.753906 177.777344 L 311.566406 156.59375 L 332.753906 156.59375 L 332.753906 177.777344 " fill-opacity="1" fill-rule="nonzero"/><path fill="#ffffff" d="M 332.753906 198.960938 L 311.566406 198.960938 L 332.753906 177.777344 L 332.753906 198.960938 " fill-opacity="1" fill-rule="nonzero"/><g clip-path="url(#318f4b2b9c)"><path fill="#ffffff" d="M 375.121094 262.515625 L 311.566406 262.515625 L 290.382812 241.332031 L 375.121094 241.332031 C 410.214844 241.332031 438.675781 212.871094 438.675781 177.777344 C 438.675781 142.683594 410.214844 114.222656 375.121094 114.222656 L 290.382812 114.222656 L 311.566406 93.039062 L 375.121094 93.039062 C 421.914062 93.039062 459.855469 130.984375 459.855469 177.777344 C 459.855469 224.570312 421.914062 262.515625 375.121094 262.515625 " fill-opacity="1" fill-rule="nonzero"/></g><g clip-path="url(#073c6d4038)"><path fill="#ffffff" d="M 311.566406 135.40625 L 290.382812 114.222656 L 311.566406 114.222656 L 311.566406 135.40625 " fill-opacity="1" fill-rule="nonzero"/></g><g clip-path="url(#cb69a9cd04)"><path fill="#ffffff" d="M 311.566406 241.332031 L 290.382812 241.332031 L 311.566406 220.148438 L 311.566406 241.332031 " fill-opacity="1" fill-rule="nonzero"/></g><g clip-path="url(#049a4477ff)"><path fill="#fffafa" d="M 437.222656 624.261719 L 400.027344 624.261719 L 382.289062 603.46875 L 368.453125 587.308594 L 367.210938 585.832031 L 349.039062 564.582031 L 288.320312 564.582031 L 288.320312 645.511719 L 338.710938 645.511719 L 360.765625 624.261719 L 366.984375 618.25 L 372.125 624.261719 L 390.296875 645.511719 L 483.320312 645.511719 L 465.148438 624.261719 L 432.3125 585.832031 C 427.539062 580.238281 422.742188 574.644531 417.96875 569.050781 C 435.179688 552.425781 452.390625 532.902344 442.84375 506.722656 C 433.320312 480.613281 407.804688 473.015625 382.496094 473.015625 L 288.320312 473.015625 L 288.320312 535.78125 L 324.417969 535.78125 C 336.808594 535.78125 349.199219 535.78125 361.589844 535.78125 C 369.804688 545.378906 378.019531 554.980469 386.210938 564.582031 C 387.105469 565.59375 387.980469 566.632812 388.851562 567.644531 L 402.664062 583.808594 L 404.386719 585.832031 Z M 404.132812 552.886719 C 399.269531 547.175781 394.382812 541.464844 389.515625 535.78125 C 383.457031 528.6875 377.402344 521.597656 371.34375 514.503906 L 309.5 514.503906 L 309.5 494.269531 L 354.042969 494.269531 C 365.925781 494.269531 377.789062 494.269531 389.675781 494.269531 C 420.472656 494.269531 431.441406 516.09375 422.125 533.453125 C 418.453125 540.292969 409.824219 547.40625 404.132812 552.886719 Z M 330.175781 624.261719 L 309.5 624.261719 L 309.5 585.832031 L 339.285156 585.832031 L 353.167969 602.089844 Z M 330.175781 624.261719 " fill-opacity="1" fill-rule="evenodd"/></g></svg>