<svg xmlns="http://www.w3.org/2000/svg" xmlns:xlink="http://www.w3.org/1999/xlink" width="1000" zoomAndPan="magnify" viewBox="0 0 750 749.999995" height="1000" preserveAspectRatio="xMidYMid meet" version="1.0"><defs><clipPath id="62ccf43e9f"><path d="M 10.910156 159 L 739.160156 159 L 739.160156 562 L 10.910156 562 Z M 10.910156 159 " clip-rule="nonzero"/></clipPath><clipPath id="d597414a9c"><path d="M 288.320312 473.015625 L 483.320312 473.015625 L 483.320312 645.515625 L 288.320312 645.515625 Z M 288.320312 473.015625 " clip-rule="nonzero"/></clipPath><clipPath id="546e9cfd7e"><path d="M 301.429688 99.660156 L 470.929688 99.660156 L 470.929688 269.160156 L 301.429688 269.160156 Z M 301.429688 99.660156 " clip-rule="nonzero"/></clipPath></defs><rect x="-75" width="900" fill="#ffffff" y="-74.999999" height="899.999994" fill-opacity="1"/><rect x="-75" width="900" fill="#ffffff" y="-74.999999" height="899.999994" fill-opacity="1"/><rect x="-75" width="900" fill="#000000" y="-74.999999" height="899.999994" fill-opacity="1"/><g clip-path="url(#62ccf43e9f)"><path fill="#ffffff" d="M 10.910156 561.226562 L 10.910156 159.800781 L 375.109375 353.007812 L 739.160156 159.800781 L 739.160156 561.226562 L 676.105469 561.226562 L 676.105469 263.835938 L 375.109375 423.714844 L 70.359375 263.835938 L 70.359375 561.226562 Z M 10.910156 561.226562 " fill-opacity="1" fill-rule="nonzero"/></g><path fill="#ffffff" d="M 196.761719 0.0742188 L 583.179688 0.0742188 L 583.179688 115.214844 L 519.976562 148.691406 L 519.976562 63.273438 L 230.089844 63.273438 L 230.089844 301.066406 L 167.039062 271.339844 L 167.039062 0.0742188 Z M 230.089844 472.054688 L 230.089844 687.625 L 519.976562 687.625 L 519.976562 275.09375 L 583.179688 275.09375 L 583.179688 750.675781 L 167.039062 750.675781 L 167.039062 438.574219 Z M 230.089844 472.054688 " fill-opacity="1" fill-rule="nonzero"/><g clip-path="url(#d597414a9c)"><path fill="#fffafa" d="M 437.222656 624.261719 L 400.027344 624.261719 L 382.289062 603.46875 L 368.453125 587.308594 L 367.210938 585.832031 L 349.039062 564.582031 L 288.320312 564.582031 L 288.320312 645.511719 L 338.710938 645.511719 L 360.765625 624.261719 L 366.984375 618.25 L 372.125 624.261719 L 390.296875 645.511719 L 483.320312 645.511719 L 465.148438 624.261719 L 432.3125 585.832031 C 427.539062 580.238281 422.742188 574.644531 417.96875 569.050781 C 435.179688 552.425781 452.390625 532.902344 442.84375 506.722656 C 433.320312 480.613281 407.804688 473.015625 382.496094 473.015625 L 288.320312 473.015625 L 288.320312 535.78125 L 324.417969 535.78125 C 336.808594 535.78125 349.199219 535.78125 361.589844 535.78125 C 369.804688 545.378906 378.019531 554.980469 386.210938 564.582031 C 387.105469 565.59375 387.980469 566.632812 388.851562 567.644531 L 402.664062 583.808594 L 404.386719 585.832031 Z M 404.132812 552.886719 C 399.269531 547.175781 394.382812 541.464844 389.515625 535.78125 C 383.457031 528.6875 377.402344 521.597656 371.34375 514.503906 L 309.5 514.503906 L 309.5 494.269531 L 354.042969 494.269531 C 365.925781 494.269531 377.789062 494.269531 389.675781 494.269531 C 420.472656 494.269531 431.441406 516.09375 422.125 533.453125 C 418.453125 540.292969 409.824219 547.40625 404.132812 552.886719 Z M 330.175781 624.261719 L 309.5 624.261719 L 309.5 585.832031 L 339.285156 585.832031 L 353.167969 602.089844 Z M 330.175781 624.261719 " fill-opacity="1" fill-rule="evenodd"/></g><g clip-path="url(#546e9cfd7e)"><path fill="#ffffff" d="M 350.515625 136.09375 L 387.710938 136.09375 C 401.011719 136.09375 413.09375 141.539062 421.84375 150.289062 C 430.59375 159.039062 436.039062 171.121094 436.039062 184.421875 C 436.039062 197.722656 430.59375 209.804688 421.84375 218.554688 C 413.09375 227.304688 401.011719 232.75 387.710938 232.75 L 301.429688 232.75 L 301.429688 99.6875 L 386.167969 99.6875 C 409.492188 99.6875 430.675781 109.222656 446.035156 124.582031 C 461.394531 139.941406 470.929688 161.125 470.929688 184.449219 C 470.929688 207.773438 461.394531 228.957031 446.035156 244.316406 C 430.675781 259.675781 409.492188 269.214844 386.167969 269.214844 L 301.429688 269.214844 L 301.429688 246.945312 L 386.167969 246.945312 C 403.34375 246.945312 418.945312 239.902344 430.296875 228.578125 C 441.621094 217.253906 448.664062 201.625 448.664062 184.449219 C 448.664062 167.273438 441.621094 151.671875 430.296875 140.320312 C 418.972656 128.996094 403.34375 121.953125 386.167969 121.953125 L 323.671875 121.953125 L 323.671875 210.484375 L 387.683594 210.484375 C 394.835938 210.484375 401.363281 207.558594 406.078125 202.816406 C 410.820312 198.074219 413.746094 191.574219 413.746094 184.421875 C 413.746094 177.269531 410.820312 170.769531 406.078125 166.027344 C 401.363281 161.289062 394.835938 158.363281 387.683594 158.363281 L 361.625 158.363281 L 361.625 174.046875 L 376.414062 174.046875 C 382.535156 174.046875 387.546875 179.058594 387.546875 185.179688 C 387.546875 191.304688 382.535156 196.316406 376.414062 196.316406 L 339.355469 196.316406 L 339.355469 136.09375 Z M 350.515625 136.09375 " fill-opacity="1" fill-rule="nonzero"/></g></svg>