<svg xmlns="http://www.w3.org/2000/svg" xmlns:xlink="http://www.w3.org/1999/xlink" width="1000" zoomAndPan="magnify" viewBox="0 0 750 749.999995" height="1000" preserveAspectRatio="xMidYMid meet" version="1.0"><defs><clipPath id="436b221695"><path d="M 10.910156 159 L 739.160156 159 L 739.160156 561 L 10.910156 561 Z M 10.910156 159 " clip-rule="nonzero"/></clipPath><clipPath id="325b005ed9"><path d="M 288.320312 468.078125 L 483.320312 468.078125 L 483.320312 640.578125 L 288.320312 640.578125 Z M 288.320312 468.078125 " clip-rule="nonzero"/></clipPath></defs><path stroke-linecap="butt" transform="matrix(2.358264, 0, 0, 2.358264, 288.322196, 15.269004)" fill="none" stroke-linejoin="miter" d="M 68.412212 70.737176 C 68.412212 82.668291 65.129209 91.863019 58.559891 98.318045 C 51.990572 104.773072 42.756091 107.999757 30.856447 107.999757 L 7.72635 107.999757 L 7.72635 36.505825 L 32.46979 36.505825 C 43.945393 36.505825 52.805525 39.440982 59.048531 45.307983 C 65.291537 51.176641 68.412212 59.652486 68.412212 70.737176 Z M 48.363036 71.421273 C 48.363036 64.868519 47.067724 60.011927 44.475444 56.849842 C 41.88482 53.686101 37.947535 52.105886 32.666903 52.105886 L 27.041737 52.105886 L 27.041737 92.156203 L 31.345088 92.156203 C 37.213746 92.156203 41.517097 90.451758 44.255141 87.046181 C 46.994842 83.638947 48.363036 78.431197 48.363036 71.421273 Z M 48.363036 71.421273 " stroke="#ffffff" stroke-width="3.129969" stroke-opacity="1" stroke-miterlimit="4"/><g clip-path="url(#436b221695)"><path fill="#ffffff" d="M 10.910156 560.875 L 10.910156 159.449219 L 375.109375 352.65625 L 739.160156 159.449219 L 739.160156 560.875 L 676.105469 560.875 L 676.105469 263.484375 L 375.109375 423.363281 L 70.359375 263.484375 L 70.359375 560.875 Z M 10.910156 560.875 " fill-opacity="1" fill-rule="nonzero"/></g><path fill="#ffffff" d="M 196.761719 -0.277344 L 583.179688 -0.277344 L 583.179688 114.863281 L 519.976562 148.339844 L 519.976562 62.921875 L 230.089844 62.921875 L 230.089844 300.714844 L 167.039062 270.988281 L 167.039062 -0.277344 Z M 230.089844 471.703125 L 230.089844 687.273438 L 519.976562 687.273438 L 519.976562 274.742188 L 583.179688 274.742188 L 583.179688 750.324219 L 167.039062 750.324219 L 167.039062 438.222656 Z M 230.089844 471.703125 " fill-opacity="1" fill-rule="nonzero"/><g clip-path="url(#325b005ed9)"><path fill="#fffafa" d="M 437.222656 619.324219 L 400.027344 619.324219 L 382.289062 598.535156 L 368.453125 582.371094 L 367.210938 580.898438 L 349.039062 559.648438 L 288.320312 559.648438 L 288.320312 640.578125 L 338.710938 640.578125 L 360.765625 619.324219 L 366.984375 613.316406 L 372.125 619.324219 L 390.296875 640.578125 L 483.320312 640.578125 L 465.148438 619.324219 L 432.3125 580.898438 C 427.539062 575.304688 422.742188 569.710938 417.96875 564.113281 C 435.179688 547.492188 452.390625 527.96875 442.84375 501.789062 C 433.320312 475.679688 407.804688 468.082031 382.496094 468.082031 L 288.320312 468.082031 L 288.320312 530.84375 L 324.417969 530.84375 C 336.808594 530.84375 349.199219 530.84375 361.589844 530.84375 C 369.804688 540.445312 378.019531 550.046875 386.210938 559.648438 C 387.105469 560.660156 387.980469 561.699219 388.851562 562.710938 L 402.664062 578.871094 L 404.386719 580.898438 Z M 404.132812 547.953125 C 399.269531 542.242188 394.382812 536.53125 389.515625 530.84375 C 383.457031 523.753906 377.402344 516.664062 371.34375 509.570312 L 309.5 509.570312 L 309.5 489.332031 L 354.042969 489.332031 C 365.925781 489.332031 377.789062 489.332031 389.675781 489.332031 C 420.472656 489.332031 431.441406 511.160156 422.125 528.519531 C 418.453125 535.359375 409.824219 542.472656 404.132812 547.953125 Z M 330.175781 619.324219 L 309.5 619.324219 L 309.5 580.898438 L 339.285156 580.898438 L 353.167969 597.152344 Z M 330.175781 619.324219 " fill-opacity="1" fill-rule="evenodd"/></g></svg>